Coordinates
version=1
nRows=20
nColumns=38
inDegrees=no

Units are S.I. units (second, meters, Newtons, ...)
If the header above contains a line with 'inDegrees', this indicates whether rotational values are in degrees (yes) or radians (no).

endheader
time	pelvis_tilt	pelvis_list	pelvis_rotation	pelvis_tx	pelvis_ty	pelvis_tz	hip_flexion_r	hip_adduction_r	hip_rotation_r	knee_angle_r	ankle_angle_r	subtalar_angle_r	mtp_angle_r	hip_flexion_l	hip_adduction_l	hip_rotation_l	knee_angle_l	ankle_angle_l	subtalar_angle_l	mtp_angle_l	lumbar_extension	lumbar_bending	lumbar_rotation	arm_flex_r	arm_add_r	arm_rot_r	elbow_flex_r	pro_sup_r	wrist_flex_r	wrist_dev_r	arm_flex_l	arm_add_l	arm_rot_l	elbow_flex_l	pro_sup_l	wrist_flex_l	wrist_dev_l
0	-3.0709	1.52577	-1.45844	0.532306	0.249409	0.940616	-0.0500553	-0.0614623	-0.163205	0.148	0.0598243	0	0	-0.113085	-0.00534878	-0.283189	0.0570353	0.0598592	0	0	-0.129521	-0.0138833	-0.0706364	0.151711	-0.252343	0.816766	0.467809	1.24651	0	0	-0.0765357	-0.304855	0.580303	0.627975	1.05701	0	0
0.01	-3.07851	1.5254	-1.4522	0.532232	0.249499	0.940669	-0.0507612	-0.061152	-0.161884	0.147385	0.0596558	0	0	-0.11623	-0.00475169	-0.280694	0.0520419	0.0578596	0	0	-0.127397	-0.0128027	-0.072505	0.156959	-0.248435	0.820687	0.455683	1.2492	0	0	-0.0721187	-0.304634	0.589641	0.624316	1.07121	0	0
0.02	-3.07804	1.52472	-1.45346	0.532079	0.249477	0.940725	-0.0512953	-0.0613903	-0.161306	0.147641	0.0597846	0	0	-0.118438	-0.00402807	-0.279603	0.0491949	0.0565801	0	0	-0.125849	-0.0119677	-0.0746545	0.160088	-0.247254	0.82325	0.45174	1.25002	0	0	-0.0687674	-0.305882	0.597688	0.625583	1.08466	0	0
0.03	-3.07392	1.52417	-1.45822	0.531928	0.249365	0.940773	-0.0515427	-0.0618045	-0.160454	0.147707	0.0594233	0	0	-0.120251	-0.00313324	-0.278443	0.0465822	0.0550244	0	0	-0.124287	-0.0113335	-0.0766651	0.16232	-0.246996	0.823661	0.45113	1.24996	0	0	-0.0654238	-0.307669	0.603787	0.629476	1.09536	0	0
0.04	-3.07072	1.52371	-1.46222	0.53183	0.249236	0.940802	-0.051576	-0.0621364	-0.15931	0.147798	0.059022	0	0	-0.121723	-0.00241239	-0.277627	0.0444676	0.0538637	0	0	-0.122713	-0.0107395	-0.0783828	0.163875	-0.247384	0.822604	0.452858	1.24935	0	0	-0.0622238	-0.309523	0.607098	0.634995	1.1024	0	0
0.05	-3.05179	1.52264	-1.48131	0.53193	0.248969	0.940915	-0.0521769	-0.0629631	-0.159007	0.148549	0.0594482	0	0	-0.122016	-0.00187848	-0.278735	0.0458861	0.0542603	0	0	-0.118274	-0.0102804	-0.0703111	0.156507	-0.250525	0.808717	0.459747	1.24407	0	0	-0.0478522	-0.312347	0.632424	0.633347	1.11986	0	0
0.06	-3.06452	1.52252	-1.46998	0.531697	0.248924	0.940871	-0.0516523	-0.0629484	-0.158068	0.149389	0.0598189	0	0	-0.122553	-0.0018856	-0.280273	0.0453012	0.0546984	0	0	-0.120784	-0.0103436	-0.0817597	0.164342	-0.249834	0.811083	0.465273	1.24246	0	0	-0.0578648	-0.313186	0.599493	0.650398	1.14978	0	0
0.07	-3.06278	1.52189	-1.47238	0.531679	0.248724	0.940909	-0.0517945	-0.0631711	-0.157355	0.149855	0.0599109	0	0	-0.122936	-0.00177993	-0.280902	0.0457006	0.0549516	0	0	-0.119751	-0.00999057	-0.0827459	0.16344	-0.251667	0.803066	0.473505	1.23974	0	0	-0.0548936	-0.315744	0.598018	0.65881	1.16186	0	0
0.08	-3.06053	1.52128	-1.47512	0.531654	0.248506	0.940919	-0.0520277	-0.063385	-0.156913	0.150043	0.0600089	0	0	-0.123024	-0.00176062	-0.281829	0.0465664	0.0553431	0	0	-0.118927	-0.00972603	-0.0835051	0.161626	-0.254258	0.794269	0.48411	1.23529	0	0	-0.0517362	-0.318123	0.594589	0.667273	1.17727	0	0
0.09	-3.05867	1.52049	-1.47748	0.531667	0.248291	0.940957	-0.0526205	-0.0634882	-0.156483	0.149853	0.0598304	0	0	-0.123573	-0.0017368	-0.282066	0.0468501	0.0553561	0	0	-0.11841	-0.00944213	-0.0842	0.159496	-0.257071	0.785872	0.495675	1.2291	0	0	-0.0486121	-0.320722	0.590872	0.676981	1.18468	0	0
0.1	-3.05774	1.51957	-1.47879	0.531686	0.248063	0.941035	-0.0536421	-0.0634421	-0.156023	0.149166	0.0593998	0	0	-0.124053	-0.00184676	-0.282429	0.0475318	0.0555779	0	0	-0.118154	-0.00904634	-0.0848889	0.156942	-0.259966	0.776802	0.508147	1.22124	0	0	-0.0454893	-0.323082	0.586095	0.686716	1.18828	0	0
0.11	-3.05746	1.51863	-1.47938	0.53172	0.247803	0.941125	-0.0547456	-0.0633169	-0.155484	0.148305	0.0588566	0	0	-0.124632	-0.00197895	-0.282509	0.0479419	0.055698	0	0	-0.117997	-0.00857682	-0.0857999	0.154482	-0.263015	0.767624	0.521087	1.21415	0	0	-0.042566	-0.325123	0.580071	0.696127	1.18874	0	0
0.12	-3.05795	1.51767	-1.4792	0.531782	0.247499	0.941196	-0.0557982	-0.0631062	-0.155034	0.14742	0.0583462	0	0	-0.125088	-0.00219306	-0.282775	0.0484709	0.0558452	0	0	-0.118077	-0.00813543	-0.0866095	0.151742	-0.266123	0.757365	0.534856	1.20785	0	0	-0.0394884	-0.327341	0.573815	0.705607	1.18652	0	0
0.13	-3.05786	1.51678	-1.47958	0.53187	0.247162	0.941238	-0.0567616	-0.0629102	-0.154848	0.146542	0.0580038	0	0	-0.12565	-0.0023228	-0.282549	0.0485163	0.0557003	0	0	-0.118219	-0.00779798	-0.0873408	0.149359	-0.268817	0.747913	0.547308	1.20286	0	0	-0.0361284	-0.329699	0.567943	0.714485	1.18258	0	0
0.14	-3.05906	1.51587	-1.47861	0.531996	0.246778	0.941274	-0.0577293	-0.0625993	-0.154717	0.145638	0.0577162	0	0	-0.125474	-0.00279048	-0.283667	0.0500575	0.0564753	0	0	-0.118598	-0.00741174	-0.0879316	0.146659	-0.271744	0.738291	0.560934	1.19635	0	0	-0.032457	-0.331982	0.562105	0.723457	1.17306	0	0
0.15	-3.05833	1.51503	-1.47949	0.532148	0.246349	0.941311	-0.0585874	-0.0624104	-0.154581	0.144779	0.0574582	0	0	-0.125382	-0.00307194	-0.284273	0.0511004	0.0569049	0	0	-0.119063	-0.00719964	-0.0886194	0.143932	-0.27392	0.727403	0.573783	1.19052	0	0	-0.0288094	-0.333966	0.555058	0.732694	1.15908	0	0
0.16	-3.05731	1.5141	-1.48084	0.532347	0.24591	0.941363	-0.0595014	-0.0622035	-0.154108	0.143721	0.0569114	0	0	-0.125519	-0.00331196	-0.284518	0.0518776	0.0570437	0	0	-0.119736	-0.00705996	-0.0892915	0.141554	-0.275226	0.716023	0.585117	1.18619	0	0	-0.0253792	-0.335565	0.54593	0.741192	1.14759	0	0
0.17	-3.05557	1.5132	-1.48287	0.532575	0.245446	0.941405	-0.0603511	-0.062015	-0.153731	0.142624	0.056421	0	0	-0.125602	-0.00353061	-0.284682	0.0526019	0.0570299	0	0	-0.120551	-0.00700312	-0.0898862	0.139677	-0.276607	0.707112	0.596002	1.18144	0	0	-0.0217187	-0.337069	0.535983	0.749174	1.1366	0	0
0.18	-3.0525	1.51233	-1.48608	0.532809	0.24492	0.941423	-0.0609342	-0.0619771	-0.15377	0.142114	0.0564384	0	0	-0.125015	-0.00391176	-0.285905	0.054509	0.0579151	0	0	-0.121231	-0.00697311	-0.0916263	0.139447	-0.277972	0.703089	0.605725	1.17283	0	0	-0.0188403	-0.338656	0.526079	0.756838	1.12465	0	0
0.19	-3.04859	1.51158	-1.49008	0.53308	0.244387	0.941428	-0.0612056	-0.0619758	-0.153757	0.141915	0.0564807	0	0	-0.124371	-0.00423836	-0.286531	0.0562324	0.0586523	0	0	-0.122203	-0.00714078	-0.092422	0.138486	-0.279268	0.698441	0.615527	1.16153	0	0	-0.0149132	-0.340646	0.518939	0.763901	1.11224	0	0
